<svg xmlns="http://www.w3.org/2000/svg" xmlns:xlink="http://www.w3.org/1999/xlink" width="944" zoomAndPan="magnify" viewBox="0 0 708.75 567.000005" height="755" preserveAspectRatio="xMidYMid meet" version="1.0"><defs><g/><clipPath id="ee689802ba"><path d="M 322 99 L 368.101562 99 L 368.101562 146 L 322 146 Z M 322 99 " clip-rule="nonzero"/></clipPath><clipPath id="d17eda8a8e"><path d="M 284 56.59375 L 311 56.59375 L 311 83 L 284 83 Z M 284 56.59375 " clip-rule="nonzero"/></clipPath></defs><g fill="#ffffff" fill-opacity="1"><g transform="translate(103.865425, 337.729038)"><g><path d="M 1.65625 0 L 21.515625 -114.328125 L 57.15625 -114.25 C 70.40625 -114.195312 80.351562 -111.5 87 -106.15625 C 93.644531 -100.820312 96.65625 -93.3125 96.03125 -83.625 C 95.300781 -72.050781 88.628906 -63.597656 76.015625 -58.265625 C 80.566406 -56.691406 84.097656 -53.742188 86.609375 -49.421875 C 89.117188 -45.109375 90.191406 -40.019531 89.828125 -34.15625 C 89.097656 -23.375 84.867188 -14.984375 77.140625 -8.984375 C 69.421875 -2.992188 58.890625 0 45.546875 0 Z M 33.375 -49.78125 L 27.953125 -18.921875 L 46.09375 -18.84375 C 51.75 -18.84375 56.484375 -20.242188 60.296875 -23.046875 C 64.117188 -25.847656 66.398438 -29.628906 67.140625 -34.390625 C 67.867188 -39.097656 67.222656 -42.773438 65.203125 -45.421875 C 63.191406 -48.066406 59.804688 -49.492188 55.046875 -49.703125 Z M 36.203125 -66.421875 L 51.828125 -66.265625 C 57.640625 -66.367188 62.390625 -67.726562 66.078125 -70.34375 C 69.765625 -72.96875 71.976562 -76.609375 72.71875 -81.265625 C 74.019531 -90.484375 69.175781 -95.117188 58.1875 -95.171875 L 41.21875 -95.25 Z M 36.203125 -66.421875 "/></g></g></g><g fill="#ffffff" fill-opacity="1"><g transform="translate(196.648276, 337.729038)"><g><path d="M 23.640625 0 L 1.328125 0 L 22.296875 -120.609375 L 44.515625 -120.609375 Z M 23.640625 0 "/></g></g></g><g fill="#ffffff" fill-opacity="1"><g transform="translate(231.251409, 337.729038)"><g><path d="M 52.84375 -8.796875 C 46.5625 -1.722656 38.765625 1.734375 29.453125 1.578125 C 21.285156 1.460938 15.101562 -1.46875 10.90625 -7.21875 C 6.71875 -12.976562 5.097656 -20.570312 6.046875 -30 L 15.234375 -84.953125 L 37.375 -84.953125 L 28.03125 -29.765625 C 27.820312 -28.035156 27.796875 -26.410156 27.953125 -24.890625 C 28.472656 -19.660156 31.378906 -16.960938 36.671875 -16.796875 C 43.523438 -16.585938 49.203125 -19.234375 53.703125 -24.734375 L 64.3125 -84.953125 L 86.609375 -84.953125 L 71.84375 0 L 51.203125 0 Z M 52.84375 -8.796875 "/></g></g></g><g fill="#ffffff" fill-opacity="1"><g transform="translate(311.78589, 337.729038)"><g><path d="M 40.59375 1.578125 C 33.164062 1.515625 26.582031 -0.304688 20.84375 -3.890625 C 15.113281 -7.472656 10.832031 -12.390625 8 -18.640625 C 5.175781 -24.898438 4.082031 -31.800781 4.71875 -39.34375 L 4.953125 -42.484375 C 5.734375 -50.753906 8.140625 -58.34375 12.171875 -65.25 C 16.203125 -72.15625 21.382812 -77.476562 27.71875 -81.21875 C 34.050781 -84.96875 41.066406 -86.738281 48.765625 -86.53125 C 59.703125 -86.320312 67.984375 -82.300781 73.609375 -74.46875 C 79.242188 -66.644531 81.378906 -56.738281 80.015625 -44.75 L 78.75 -35.09375 L 26.703125 -35.09375 C 26.492188 -29.601562 27.828125 -25.207031 30.703125 -21.90625 C 33.578125 -18.601562 37.503906 -16.898438 42.484375 -16.796875 C 50.546875 -16.585938 57.613281 -19.703125 63.6875 -26.140625 L 73.8125 -13.578125 C 70.613281 -8.765625 66.003906 -5.007812 59.984375 -2.3125 C 53.960938 0.382812 47.5 1.679688 40.59375 1.578125 Z M 47.65625 -68.234375 C 43.570312 -68.335938 39.945312 -67.054688 36.78125 -64.390625 C 33.613281 -61.722656 30.773438 -57.085938 28.265625 -50.484375 L 58.734375 -50.484375 L 59.203125 -52.53125 C 59.515625 -54.625 59.539062 -56.613281 59.28125 -58.5 C 58.757812 -61.53125 57.476562 -63.894531 55.4375 -65.59375 C 53.394531 -67.300781 50.800781 -68.179688 47.65625 -68.234375 Z M 47.65625 -68.234375 "/></g></g></g><g fill="#ffffff" fill-opacity="1"><g transform="translate(396.101011, 336.699433)"><g><path d="M 64.546875 -30.546875 C 65.648438 -36.773438 62.585938 -41.539062 55.359375 -44.84375 L 40.203125 -50.890625 C 22.617188 -58.742188 14.269531 -69.550781 15.15625 -83.3125 C 15.519531 -89.707031 17.613281 -95.363281 21.4375 -100.28125 C 25.257812 -105.195312 30.625 -109.054688 37.53125 -111.859375 C 44.445312 -114.660156 51.910156 -116.007812 59.921875 -115.90625 C 70.960938 -115.695312 79.882812 -112.410156 86.6875 -106.046875 C 93.5 -99.691406 96.851562 -91.175781 96.75 -80.5 L 73.8125 -80.5 C 74.070312 -85.675781 72.929688 -89.703125 70.390625 -92.578125 C 67.859375 -95.460938 63.921875 -96.957031 58.578125 -97.0625 C 53.347656 -97.164062 48.796875 -95.972656 44.921875 -93.484375 C 41.046875 -91.003906 38.742188 -87.585938 38.015625 -83.234375 C 37.015625 -77.535156 40.832031 -73.007812 49.46875 -69.65625 L 59.84375 -65.734375 L 65.8125 -62.984375 C 81.25 -55.335938 88.472656 -44.601562 87.484375 -30.78125 C 87.015625 -24.03125 84.851562 -18.207031 81 -13.3125 C 77.15625 -8.414062 71.921875 -4.65625 65.296875 -2.03125 C 58.671875 0.582031 51.378906 1.8125 43.421875 1.65625 C 35.304688 1.488281 28.082031 -0.210938 21.75 -3.453125 C 15.414062 -6.703125 10.597656 -11.285156 7.296875 -17.203125 C 4.210938 -22.691406 2.773438 -28.972656 2.984375 -36.046875 L 26 -35.96875 C 25.257812 -23.5625 31.359375 -17.253906 44.296875 -17.046875 C 49.890625 -17.046875 54.492188 -18.273438 58.109375 -20.734375 C 61.722656 -23.191406 63.867188 -26.460938 64.546875 -30.546875 Z M 64.546875 -30.546875 "/></g></g></g><g fill="#ffffff" fill-opacity="1"><g transform="translate(485.195042, 336.699433)"><g><path d="M 81.828125 -42.25 C 80.722656 -33.351562 78.390625 -25.445312 74.828125 -18.53125 C 71.273438 -11.625 66.851562 -6.492188 61.5625 -3.140625 C 56.28125 0.210938 50.414062 1.8125 43.96875 1.65625 C 35.75 1.4375 29.257812 -1.625 24.5 -7.53125 L 16.734375 32.671875 L -5.421875 32.671875 L 14.921875 -84.96875 L 35.34375 -85.046875 L 33.84375 -76.484375 C 39.96875 -83.398438 47.191406 -86.75 55.515625 -86.53125 C 63.835938 -86.320312 70.300781 -83.300781 74.90625 -77.46875 C 79.519531 -71.632812 81.984375 -63.71875 82.296875 -53.71875 C 82.398438 -50.46875 82.242188 -46.644531 81.828125 -42.25 Z M 59.84375 -43.890625 L 60.3125 -51.4375 C 60.414062 -56.507812 59.484375 -60.535156 57.515625 -63.515625 C 55.554688 -66.503906 52.691406 -68.050781 48.921875 -68.15625 C 42.484375 -68.375 37.171875 -65.65625 32.984375 -60 L 26.625 -24.96875 C 28.5625 -19.6875 32.722656 -16.941406 39.109375 -16.734375 C 44.453125 -16.566406 48.898438 -18.628906 52.453125 -22.921875 C 56.015625 -27.222656 58.476562 -34.210938 59.84375 -43.890625 Z M 59.84375 -43.890625 "/></g></g></g><g fill="#ffffff" fill-opacity="1"><g transform="translate(566.20188, 336.699433)"><g><path d="M 48.84375 -86.546875 C 56.332031 -86.429688 62.785156 -84.503906 68.203125 -80.765625 C 73.617188 -77.023438 77.597656 -71.867188 80.140625 -65.296875 C 82.679688 -58.722656 83.582031 -51.429688 82.84375 -43.421875 C 81.644531 -29.921875 76.945312 -18.992188 68.75 -10.640625 C 60.5625 -2.285156 50.445312 1.785156 38.40625 1.578125 C 31.019531 1.460938 24.628906 -0.4375 19.234375 -4.125 C 13.847656 -7.8125 9.867188 -12.925781 7.296875 -19.46875 C 4.734375 -26.019531 3.820312 -33.25 4.5625 -41.15625 C 5.914062 -55.175781 10.675781 -66.320312 18.84375 -74.59375 C 27.007812 -82.875 37.007812 -86.859375 48.84375 -86.546875 Z M 26.46875 -33.0625 C 26.570312 -28.03125 27.75 -24.0625 30 -21.15625 C 32.25 -18.257812 35.414062 -16.753906 39.5 -16.640625 C 46.300781 -16.429688 51.640625 -19.5625 55.515625 -26.03125 C 59.390625 -32.5 61.195312 -40.992188 60.9375 -51.515625 C 60.726562 -56.535156 59.507812 -60.550781 57.28125 -63.5625 C 55.0625 -66.570312 51.882812 -68.128906 47.75 -68.234375 C 41.144531 -68.453125 35.867188 -65.351562 31.921875 -58.9375 C 27.972656 -52.519531 26.15625 -43.894531 26.46875 -33.0625 Z M 26.46875 -33.0625 "/></g></g></g><g fill="#ffffff" fill-opacity="1"><g transform="translate(647.601309, 336.699433)"><g><path d="M 45.15625 -105.859375 L 41.46875 -84.96875 L 55.59375 -84.96875 L 52.6875 -68.328125 L 38.5625 -68.328125 L 31.328125 -25.75 C 31.015625 -23.082031 31.222656 -21.039062 31.953125 -19.625 C 32.691406 -18.21875 34.472656 -17.460938 37.296875 -17.359375 C 38.140625 -17.304688 40.394531 -17.4375 44.0625 -17.75 L 42.484375 -0.390625 C 38.554688 0.921875 34.316406 1.519531 29.765625 1.40625 C 22.484375 1.300781 17.0625 -0.972656 13.5 -5.421875 C 9.945312 -9.867188 8.484375 -15.890625 9.109375 -23.484375 L 16.40625 -68.328125 L 4.390625 -68.328125 L 7.296875 -84.96875 L 19.3125 -84.96875 L 22.9375 -105.859375 Z M 45.15625 -105.859375 "/></g></g></g><path fill="#ffffff" d="M 170.589844 134.257812 C 215.5625 115.519531 261.644531 112.433594 298.464844 122.652344 C 256.601562 104.085938 198.390625 104.585938 141.832031 128.148438 C 52.144531 165.535156 0.652344 246.699219 26.800781 309.453125 C 46.082031 355.710938 102.183594 379.011719 166.285156 373.097656 C 88.011719 354.667969 70.40625 320.191406 63.363281 303.238281 C 38.972656 244.746094 86.988281 169.078125 170.589844 134.257812 Z M 170.589844 134.257812 " fill-opacity="1" fill-rule="nonzero"/><path fill="#ffffff" d="M 359.542969 179.816406 C 354.609375 167.992188 346.675781 158.015625 336.523438 150.058594 C 303.09375 123.800781 245.40625 119.390625 189.671875 142.605469 C 148.742188 159.667969 117.617188 187.992188 102.054688 218.574219 C 120.617188 194.925781 147.917969 173.992188 181.328125 160.082031 C 251.296875 130.933594 324.179688 142.277344 355 184.230469 C 358.589844 189.121094 361.652344 194.402344 364.023438 200.097656 C 364.304688 200.773438 364.523438 201.46875 364.78125 202.140625 C 364.238281 194.488281 362.542969 187.011719 359.542969 179.816406 Z M 359.542969 179.816406 " fill-opacity="1" fill-rule="nonzero"/><g clip-path="url(#ee689802ba)"><path fill="#ffffff" d="M 368.152344 122.542969 C 350.9375 125.714844 348.371094 128.28125 345.199219 145.496094 C 342.023438 128.28125 339.460938 125.714844 322.246094 122.542969 C 339.460938 119.367188 342.023438 116.804688 345.199219 99.589844 C 348.371094 116.824219 350.9375 119.390625 368.152344 122.542969 Z M 368.152344 122.542969 " fill-opacity="1" fill-rule="nonzero"/></g><g clip-path="url(#d17eda8a8e)"><path fill="#ffffff" d="M 310.917969 69.613281 C 302.355469 72.070312 300.355469 74.070312 297.898438 82.632812 C 295.441406 74.070312 293.441406 72.070312 284.878906 69.613281 C 293.445312 67.15625 295.441406 65.15625 297.898438 56.59375 C 300.355469 65.15625 302.355469 67.15625 310.917969 69.613281 Z M 310.917969 69.613281 " fill-opacity="1" fill-rule="nonzero"/></g><path fill="#ffffff" d="M 345.199219 78.328125 C 340.917969 79.570312 339.917969 80.570312 338.675781 84.851562 C 337.4375 80.570312 336.4375 79.570312 332.15625 78.328125 C 336.4375 77.089844 337.4375 76.089844 338.675781 71.808594 C 339.917969 76.089844 340.917969 77.089844 345.199219 78.328125 Z M 345.199219 78.328125 " fill-opacity="1" fill-rule="nonzero"/></svg>